                    =!DK GROUP HD BLURAY RELEAESEES!=
 
===================================================================================


               	
   The Incredible Hulk(2008)BDRip 1080p In[Hindi-Eng-Tamil]6CH-AC3 By !!!dip


===================================================================================

Storyline:

Depicting the events after the Gamma Bomb. 'The Incredible Hulk' tells the story of Dr Bruce Banner, who seeks a cure to his unique condition, which causes him to turn into a giant green monster under emotional stress. Whilst on the run from military which seeks his capture, Banner comes close to a cure. But all is lost when a new creature emerges; The Abomination. Written by Graham Kroon  

Cast:


Edward Norton	 ...	Bruce Banner
Liv Tyler	 ...	Betty Ross
Tim Roth	 ...	Emil Blonsky
William Hurt	 ...	General 'Thunderbolt' Ross
Tim Blake Nelson ...	Samuel Sterns
Ty Burrell	 ...	Leonard
Christina Cabot	 ...	Major Kathleen Sparr
Peter Mensah	 ...	General Joe Greller
Lou Ferrigno	 ...	The Incredible Hulk / Security Guard (voice)
Paul Soles	 ...	Stanley
Débora Nascimento...	Martina
Greg Bryk	 ...	Commando
Chris Owens	 ...	Commando
Al Vrkljan	 ...	Commando (as Alan Vrkljan)
Adrian Hein	 ...	Commando


Directors :Louis Leterrier
Writers :Zak Penn (screenplay), Zak Penn (screen story)
Stars: Edward Norton, Liv Tyler and Tim Roth
Genre: Action | Adventure | Comedy
Language:[English-Hindi-Tamil]
Format :Color, Dubbed,Widescreen
Release Date: 20 June 2008 (India)
SUBTITLE:ENGLISH
Encoder:Deep Shikha





Video Specifications:


Video
ID : 1
Format : AVC
Format/Info : Advanced Video Codec
Format profile : High@L4.1
Format settings, CABAC : Yes
Format settings, ReFrames : 3 frames
Muxing mode : Header stripping
Codec ID : V_MPEG4/ISO/AVC
Duration : 1h 47mn
Bit rate mode : Variable
Nominal bit rate : 3 000 Kbps
Maximum bit rate : 62.5 Mbps
Width : 1 920 pixels
Height : 818 pixels
Display aspect ratio : 2.35:1
Frame rate : 25.000 fps
Original frame rate : 23.976 fps
Color space : YUV
Chroma subsampling : 4:2:0
Bit depth : 8 bits
Scan type : Progressive
Bits/(Pixel*Frame) : 0.076
Title : !!!dip
Team : DK Group HD Bluray Releases




Audio Specifications:


Audio #1
ID : 2
Format : AAC
Format/Info : Advanced Audio Codec
Format profile : LC
Codec ID : A_AAC
Duration : 1h 47mn
Channel(s) : 6 channels
Channel positions : Front: L C R, Side: L R, LFE
Sampling rate : 48.0 KHz
Compression mode : Lossy
Title : !!!dip
Language : English

Audio #2
ID : 3
Format : AC-3
Format/Info : Audio Coding 3
Mode extension : CM (complete main)
Muxing mode : Header stripping
Codec ID : A_AC3
Duration : 1h 47mn
Bit rate mode : Constant
Bit rate : 448 Kbps
Channel(s) : 6 channels
Channel positions : Front: L C R, Side: L R, LFE
Sampling rate : 48.0 KHz
Bit depth : 16 bits
Compression mode : Lossy
Delay relative to video : 2s 200ms
Stream size : 345 MiB (11%)
Title : !!!dip
Language : Hindi

Audio #3
ID : 4
Format : AC-3
Format/Info : Audio Coding 3
Mode extension : CM (complete main)
Muxing mode : Header stripping
Codec ID : A_AC3
Duration : 1h 47mn
Bit rate mode : Constant
Bit rate : 192 Kbps
Channel(s) : 2 channels
Channel positions : Front: L R
Sampling rate : 48.0 KHz
Bit depth : 16 bits
Compression mode : Lossy
Delay relative to video : 2s 200ms
Stream size : 148 MiB (5%)
Title : !!!dip
Language : Tamil

Text
ID : 5
Format : UTF-8
Codec ID : S_TEXT/UTF8
Codec ID/Info : UTF-8 Plain Text
Title : !!!dip
Language : English


SAMPLE IMAGE:
    
http://imagestorage.org/images/87487034690222355990.jpg
 
http://imagestorage.org/images/21994869330972688842.jpg
 
http://imagestorage.org/images/09983973465722736198.jpg
 
http://imagestorage.org/images/07938978663960714889.jpg
 
http://imagestorage.org/images/78760622436215699884.jpg
 
http://imagestorage.org/images/79603925475268059851.jpg


VIDEO SAMPLE IS AVAILABLE
